<?xml version="1.0" standalone="no"?><!DOCTYPE svg PUBLIC "-//W3C//DTD SVG 1.1//EN" "http://www.w3.org/Graphics/SVG/1.1/DTD/svg11.dtd"><svg class="icon" width="200px" height="200.00px" viewBox="0 0 1024 1024" version="1.1" xmlns="http://www.w3.org/2000/svg"><path d="M256 384H192v416a128 128 0 0 0 128 128h384a128 128 0 0 0 128-128V384h-64v416a64 64 0 0 1-64 64H320a64 64 0 0 1-64-64V384z" fill="#2B82D8" /><path d="M544 704a96 96 0 0 1 96 96v128h-192v-128a96 96 0 0 1 96-96z" fill="#CAE705" /><path d="M512 171.552L117.696 535.52a32 32 0 1 1-43.392-47.04l416-384a32 32 0 0 1 43.424 0l416 384a32 32 0 0 1-43.392 47.04L512 171.552z" fill="#2B82D8" /><path d="M736 160a32 32 0 0 1 32 32v128a32 32 0 0 1-64 0V192a32 32 0 0 1 32-32zM448 864h128v-128a64 64 0 1 0-128 0v128z m64-256a128 128 0 0 1 128 128v192h-256v-192a128 128 0 0 1 128-128z" fill="#2B82D8" /></svg>